<svg width="25" height="29" viewBox="0 0 25 29" fill="none" xmlns="http://www.w3.org/2000/svg">
<path d="M10.1521 14L7.29211 9.9C7.17211 9.91333 6.99211 9.92 6.75211 9.92H3.59211V14H0.992109V-9.53674e-07H6.75211C7.96544 -9.53674e-07 9.01878 0.199999 9.91211 0.6C10.8188 0.999999 11.5121 1.57333 11.9921 2.32C12.4721 3.06667 12.7121 3.95333 12.7121 4.98C12.7121 6.03333 12.4521 6.94 11.9321 7.7C11.4254 8.46 10.6921 9.02667 9.73211 9.4L12.9521 14H10.1521ZM10.0921 4.98C10.0921 4.08667 9.79878 3.4 9.21211 2.92C8.62544 2.44 7.76544 2.2 6.63211 2.2H3.59211V7.78H6.63211C7.76544 7.78 8.62544 7.54 9.21211 7.06C9.79878 6.56667 10.0921 5.87333 10.0921 4.98ZM18.401 14.2C17.5077 14.2 16.681 14.0267 15.921 13.68C15.1743 13.32 14.561 12.82 14.081 12.18L15.561 10.4C16.3343 11.4667 17.261 12 18.341 12C19.7943 12 20.521 11.14 20.521 9.42V2.18H15.541V-9.53674e-07H23.121V9.28C23.121 10.92 22.721 12.1533 21.921 12.98C21.121 13.7933 19.9477 14.2 18.401 14.2ZM3.65891 17.18V21.44H10.4189V23.64H3.65891V29H1.05891V15H11.2789V17.18H3.65891Z" fill="#4C4C4C"/>
<path d="M20.8006 25.76H13.8006L12.4206 29H9.74062L16.0406 15H18.6006L24.9206 29H22.2006L20.8006 25.76ZM19.9406 23.72L17.3006 17.6L14.6806 23.72H19.9406Z" fill="#B81A28"/>
</svg>
