<svg width="20" height="20" viewBox="0 0 20 20" fill="none" xmlns="http://www.w3.org/2000/svg">
<g clip-path="url(#clip0_752_224)">
<path d="M9.79935 18.0007H8.64551L11.5677 10.593C12.4874 8.61809 14.944 8.61809 15.8637 10.593C16.2769 11.6235 16.6914 12.6512 17.1054 13.6781C17.8814 15.6029 18.6555 17.5246 19.4147 19.4564C18.4367 19.621 18.006 18.9745 17.7033 18.1868L16.6554 15.6007H11.6975H10.8377L9.79935 18.0007ZM14.8392 11.0279C14.327 10.017 13.1278 10.017 12.6039 11.0279L10.8377 15.6007H11.6975L12.0782 14.4722H17.4255L17.1054 13.6781C16.0157 13.6781 16.4951 13.6781 15.8848 13.6781C15.5159 12.7533 15.1564 11.8514 14.8392 11.0279Z" fill="#B81A1D"/>
<path d="M17.1231 0H18.4612V2.24621L17.7192 2.91047L17.1231 2.24621V2.98861L17.7192 3.57475L18.4612 2.98861V5.97721C18.4612 7.57511 16.9455 8.88889 15.1158 8.88889H11.306C10.3639 8.87704 9.46262 8.72319 9.23047 7.75259C11.1968 7.76444 13.1495 7.75259 15.1158 7.75259C16.2219 7.75259 17.1231 6.93594 17.1231 5.97721V2.98861V2.24621V0Z" fill="#838383"/>
<path d="M0 12.7563H10.4846L9.64615 13.7529L1.33846 13.8063V18.2507H0V12.7563ZM10.4818 9.36182L9.64838 10.265H1.80272C1.24231 10.265 0 10.0391 0 9.36182C2.62046 9.38974 7.87708 9.36182 10.4818 9.36182Z" fill="#838383"/>
<path d="M5.37385 0C8.52923 0 8.99231 4.36593 5.92308 4.98815L9.70308 8.91852C8.92769 9.36444 8.32462 8.97037 7.81846 8.43111C6.72 7.31111 5.64308 6.17037 4.55538 5.02963H1.13077V7.78815L0.0753846 7.01037V1.89778H1.13077V4.04444H5.37385C7.48462 4.04444 7.48462 1.00593 5.37385 1.00593C4.13538 1.00593 2.86462 1.02667 1.63692 1.00593C0.893846 1.00593 0.193846 0.860741 0 0C1.78769 0.0207415 3.57538 0 5.37385 0Z" fill="#838383"/>
</g>
<defs>
<clipPath id="clip0_752_224">
<rect width="20" height="20" fill="white"/>
</clipPath>
</defs>
</svg>
