<svg width="35" height="9" viewBox="0 0 35 9" fill="none" xmlns="http://www.w3.org/2000/svg">
<g clip-path="url(#clip0_752_212)">
<path d="M26.5868 7.71429H25.5771L28.1341 1.28543C28.9389 -0.428477 31.0884 -0.428477 31.8932 1.28543C32.2546 2.17981 32.6173 3.07171 32.9796 3.96287C33.6586 5.63332 34.3359 7.30112 35.0002 8.97763C34.1445 9.12047 33.7676 8.55932 33.5027 7.87584L32.5859 5.63142H28.2477H27.4953L26.5868 7.71429ZM30.9967 1.6629C30.5484 0.785539 29.4992 0.785539 29.0407 1.6629L27.4953 5.63142H28.2477L28.5808 4.65204H33.2596L32.9796 3.96287C32.0261 3.96287 32.4456 3.96287 31.9116 3.96287C31.5888 3.1603 31.2742 2.3776 30.9967 1.6629Z" fill="#6A1212"/>
<path d="M15.656 0.642822H16.8269V2.59221L16.1777 3.1687L15.656 2.59221V3.23651L16.1777 3.74519L16.8269 3.23651V5.83019C16.8269 7.21694 15.5007 8.35711 13.8996 8.35711H10.5661C9.74171 8.34682 8.95313 8.2133 8.75 7.37096C10.4705 7.38125 12.1791 7.37096 13.8996 7.37096C14.8675 7.37096 15.656 6.66221 15.656 5.83019V3.23651V2.59221V0.642822Z" fill="white"/>
<path d="M17.5 3.58878H26.674L25.9404 4.45365L18.6712 4.49997V8.35711H17.5V3.58878ZM26.6716 0.642822L25.9423 1.42661H19.0774C18.587 1.42661 17.5 1.23066 17.5 0.642822C19.7929 0.667039 24.3924 0.642822 26.6716 0.642822Z" fill="white"/>
<path d="M4.70212 0.642822C7.46308 0.642822 7.86827 4.43182 5.18269 4.97182L8.49019 8.38282C7.81173 8.76982 7.28404 8.42782 6.84115 7.95982C5.88 6.98782 4.93769 5.99782 3.98596 5.00782H0.989423V7.40182L0.0659615 6.72682V2.28982H0.989423V4.15282H4.70212C6.54904 4.15282 6.54904 1.51582 4.70212 1.51582C3.61846 1.51582 2.50654 1.53382 1.43231 1.51582C0.782115 1.51582 0.169615 1.38982 0 0.642822C1.56423 0.660822 3.12846 0.642822 4.70212 0.642822Z" fill="white"/>
</g>
<defs>
<clipPath id="clip0_752_212">
<rect width="35" height="9" fill="white"/>
</clipPath>
</defs>
</svg>
