<svg width="238" height="253" viewBox="0 0 238 253" fill="none" xmlns="http://www.w3.org/2000/svg">
<path d="M63.4333 44.1309H56.5898" stroke="#263238" stroke-miterlimit="10"/>
<path d="M32.7695 122.698H63.4317C64.7828 122.706 66.112 122.357 67.2845 121.686C68.4571 121.015 69.4312 120.045 70.1082 118.876L88.2852 87.2456C88.9576 86.0809 89.3116 84.7598 89.3116 83.4149C89.3116 82.0701 88.9576 80.7489 88.2852 79.5843L70.0748 47.9707" stroke="#263238" stroke-miterlimit="10"/>
<path d="M50.2146 44.1309H26.8466C25.4942 44.1261 24.1645 44.4786 22.9921 45.1528C21.8197 45.8269 20.8462 46.7987 20.17 47.9699L2.02643 79.5835C1.354 80.7482 1 82.0693 1 83.4142C1 84.759 1.354 86.0802 2.02643 87.2448L20.2868 118.959C20.9638 120.128 21.938 121.097 23.1106 121.769C24.2831 122.44 25.6123 122.789 26.9634 122.781" stroke="#263238" stroke-miterlimit="10"/>
<path d="M88.0547 151.857L93.2958 160.903C93.9715 162.074 94.9454 163.044 96.1182 163.715C97.2911 164.387 98.6209 164.735 99.9724 164.726H136.493C137.845 164.735 139.174 164.387 140.347 163.715C141.52 163.044 142.494 162.074 143.17 160.903L161.43 129.19C162.103 128.028 162.457 126.709 162.457 125.367C162.457 124.025 162.103 122.706 161.43 121.545L150.648 102.867" stroke="#263238" stroke-miterlimit="10"/>
<path d="M83.3633 143.711L86.0506 148.368" stroke="#263238" stroke-miterlimit="10"/>
<path d="M147.188 97.1432L143.065 89.9993C142.39 88.8269 141.417 87.8541 140.244 87.1798C139.071 86.5055 137.741 86.1538 136.388 86.1602H99.9677C98.6149 86.1538 97.2846 86.5055 96.1119 87.1798C94.9392 87.8541 93.966 88.8269 93.2911 89.9993L75.0307 121.713C74.3581 122.875 74.0039 124.193 74.0039 125.535C74.0039 126.878 74.3581 128.196 75.0307 129.358L80.422 138.722" stroke="#263238" stroke-miterlimit="10"/>
<path d="M87.0148 15.6895L75.0303 36.4035C74.3579 37.5682 74.0039 38.8893 74.0039 40.2342C74.0039 41.579 74.3579 42.9002 75.0303 44.0649L93.2908 75.7452C93.9664 76.9156 94.9403 77.886 96.1132 78.5574C97.286 79.2289 98.6159 79.5774 99.9673 79.5675H136.488C137.84 79.5774 139.169 79.2289 140.342 78.5574C141.515 77.886 142.489 76.9156 143.165 75.7452L161.425 44.1149C162.098 42.9503 162.452 41.6291 162.452 40.2843C162.452 38.9394 162.098 37.6183 161.425 36.4536L160.056 34.3338" stroke="#263238" stroke-miterlimit="10"/>
<path d="M93.2967 4.82227L90.4258 9.79631" stroke="#263238" stroke-miterlimit="10"/>
<path d="M158.106 30.8612L143.084 4.82254C142.408 3.65213 141.434 2.68176 140.261 2.0103C139.088 1.33885 137.758 0.99031 136.407 1.0002H99.9696C99.3675 0.997161 98.7674 1.07006 98.1836 1.21719" stroke="#263238" stroke-miterlimit="10"/>
<path d="M209.438 43.0803H172.917C171.566 43.0704 170.236 43.4189 169.063 44.0904C167.89 44.7618 166.916 45.7322 166.241 46.9026L148.03 78.4828C147.358 79.6475 147.004 80.9686 147.004 82.3135C147.004 83.6583 147.358 84.9795 148.03 86.1442L166.291 117.858C166.966 119.028 167.94 119.999 169.113 120.67C170.286 121.342 171.616 121.69 172.967 121.68H209.488C210.839 121.688 212.168 121.339 213.341 120.668C214.514 119.997 215.488 119.027 216.165 117.858L234.408 86.1442C235.081 84.9795 235.435 83.6583 235.435 82.3135C235.435 80.9686 235.081 79.6475 234.408 78.4828L216.081 46.8525C215.401 45.6975 214.429 44.7413 213.263 44.0793C212.098 43.4174 210.779 43.0729 209.438 43.0803Z" stroke="#263238" stroke-miterlimit="10"/>
<path d="M135.988 173.274H99.4673C98.1159 173.264 96.786 173.612 95.6132 174.284C94.4403 174.955 93.4664 175.926 92.7907 177.096L74.5303 208.81C73.8579 209.974 73.5039 211.296 73.5039 212.64C73.5039 213.985 73.8579 215.306 74.5303 216.471L92.7907 248.101C93.4664 249.272 94.4403 250.242 95.6132 250.914C96.786 251.585 98.1159 251.934 99.4673 251.924H135.988C137.339 251.932 138.668 251.583 139.841 250.911C141.014 250.24 141.988 249.271 142.665 248.101L160.908 216.471C161.581 215.306 161.935 213.985 161.935 212.64C161.935 211.296 161.581 209.974 160.908 208.81L142.665 177.096C141.988 175.927 141.014 174.957 139.841 174.286C138.668 173.615 137.339 173.265 135.988 173.274Z" stroke="#263238" stroke-miterlimit="10"/>
<path d="M222.036 195.989L235.973 171.836C236.646 170.675 237 169.356 237 168.014C237 166.672 236.646 165.353 235.973 164.191L217.713 132.478C217.038 131.305 216.065 130.333 214.892 129.658C213.719 128.984 212.389 128.632 211.036 128.639H174.565C173.213 128.632 171.882 128.984 170.71 129.658C169.537 130.333 168.564 131.305 167.889 132.478L149.628 164.191C148.956 165.353 148.602 166.672 148.602 168.014C148.602 169.356 148.956 170.675 149.628 171.836L167.889 203.55C168.564 204.722 169.537 205.695 170.71 206.369C171.882 207.044 173.213 207.395 174.565 207.389H203.809" stroke="#263238" stroke-miterlimit="10"/>
<path d="M211.09 207.306C212.443 207.313 213.773 206.961 214.946 206.287C216.118 205.612 217.092 204.64 217.766 203.467L218.868 201.564" stroke="#263238" stroke-miterlimit="10"/>
<path d="M136.378 137.253L140.835 138.254L141.869 133.748L137.596 132.78C137.596 132.646 137.596 132.513 137.596 132.396C137.603 131.024 137.324 129.665 136.779 128.407L140.25 125.636L137.363 122.014L134.024 124.668C132.87 123.658 131.5 122.927 130.019 122.531V118.191H125.378V122.331C123.859 122.639 122.427 123.284 121.189 124.217L117.85 121.546L114.996 125.185L118.335 127.806C117.64 129.172 117.269 130.68 117.25 132.212L112.977 133.197L114.011 137.704L118.218 136.736C118.85 138.094 119.773 139.296 120.922 140.257L118.969 144.313L123.142 146.333L125.061 142.327C125.848 142.522 126.654 142.622 127.465 142.628C128.115 142.621 128.763 142.554 129.401 142.427L131.404 146.567L135.577 144.564L133.624 140.541C134.766 139.654 135.705 138.533 136.378 137.253ZM122.841 132.396C122.841 131.498 123.107 130.62 123.606 129.873C124.105 129.127 124.814 128.545 125.644 128.201C126.473 127.858 127.386 127.768 128.267 127.943C129.148 128.118 129.957 128.551 130.592 129.185C131.227 129.82 131.659 130.629 131.834 131.51C132.009 132.391 131.919 133.304 131.576 134.133C131.232 134.963 130.65 135.672 129.904 136.171C129.157 136.67 128.279 136.936 127.381 136.936C126.177 136.936 125.022 136.458 124.171 135.606C123.32 134.755 122.841 133.6 122.841 132.396Z" stroke="#263238" stroke-miterlimit="10"/>
<path d="M114.675 118.991L119.115 120.009L120.15 115.503L115.877 114.518C115.877 114.384 115.877 114.267 115.877 114.134C115.879 112.764 115.606 111.407 115.075 110.145L118.531 107.391L115.643 103.769L112.305 106.406C111.14 105.402 109.766 104.672 108.282 104.269V99.9629H103.692V104.102C102.17 104.404 100.737 105.049 99.5023 105.988L96.164 103.318L93.2931 106.94L96.6314 109.544C95.9382 110.917 95.5671 112.429 95.5464 113.967L91.2734 114.935L92.3083 119.442L96.5145 118.49C97.1516 119.841 98.0742 121.037 99.2186 121.996L97.2657 126.068L101.439 128.071L103.358 124.065C104.143 124.268 104.951 124.369 105.762 124.366C106.411 124.365 107.06 124.303 107.698 124.182L109.701 128.322L113.874 126.319L111.937 122.279C113.072 121.389 114.006 120.269 114.675 118.991ZM101.121 114.134C101.121 113.236 101.388 112.358 101.887 111.612C102.385 110.865 103.094 110.283 103.924 109.939C104.754 109.596 105.666 109.506 106.547 109.681C107.428 109.856 108.237 110.289 108.872 110.924C109.507 111.559 109.939 112.367 110.114 113.248C110.289 114.129 110.2 115.042 109.856 115.871C109.512 116.701 108.93 117.41 108.184 117.909C107.437 118.408 106.559 118.674 105.661 118.674C104.457 118.674 103.303 118.196 102.451 117.344C101.6 116.493 101.121 115.338 101.121 114.134Z" stroke="#263238" stroke-miterlimit="10"/>
<path d="M200.24 84.9029C203.414 77.2877 199.814 68.5407 192.199 65.3661C184.584 62.1915 175.837 65.7914 172.662 73.4067C169.488 81.0219 173.087 89.7688 180.703 92.9435C188.318 96.1181 197.065 92.5182 200.24 84.9029Z" stroke="#263238" stroke-miterlimit="10"/>
<path d="M186.451 91.8514C193.457 91.8514 199.137 86.172 199.137 79.166C199.137 72.16 193.457 66.4805 186.451 66.4805C179.445 66.4805 173.766 72.16 173.766 79.166C173.766 86.172 179.445 91.8514 186.451 91.8514Z" stroke="#263238" stroke-miterlimit="10"/>
<path d="M203.262 94.957L213.16 103.169" stroke="#263238" stroke-width="3" stroke-miterlimit="10"/>
<path d="M197.316 90.0312L203.259 94.9552" stroke="#263238" stroke-width="2" stroke-miterlimit="10"/>
<path d="M22.4727 73.4238H66.8718" stroke="#263238" stroke-miterlimit="10"/>
<path d="M31.973 70.9707H27.3828V75.5608H31.973V70.9707Z" fill="#263238"/>
<path d="M22.4727 83.8223H66.8718" stroke="#263238" stroke-miterlimit="10"/>
<path d="M55.6917 81.3867H51.1016V85.9769H55.6917V81.3867Z" fill="#263238"/>
<path d="M22.4727 94.2383H66.8718" stroke="#263238" stroke-miterlimit="10"/>
<path d="M45.1253 91.7852H40.5352V96.3753H45.1253V91.7852Z" fill="#263238"/>
<path d="M191.771 210.546C193.707 210.546 195.276 208.976 195.276 207.04C195.276 205.104 193.707 203.535 191.771 203.535C189.835 203.535 188.266 205.104 188.266 207.04C188.266 208.976 189.835 210.546 191.771 210.546Z" fill="#263238"/>
<path d="M219.115 138.505C221.05 138.505 222.62 136.935 222.62 134.999C222.62 133.063 221.05 131.494 219.115 131.494C217.179 131.494 215.609 133.063 215.609 134.999C215.609 136.935 217.179 138.505 219.115 138.505Z" fill="#263238"/>
<path d="M116.266 86.9272C116.27 86.2292 116.066 85.546 115.68 84.9643C115.294 84.3826 114.744 83.9286 114.1 83.66C113.456 83.3913 112.746 83.3202 112.062 83.4555C111.377 83.5909 110.748 83.9267 110.254 84.4202C109.761 84.9138 109.425 85.5428 109.29 86.2276C109.154 86.9123 109.225 87.6218 109.494 88.266C109.763 88.9102 110.217 89.4601 110.798 89.8458C111.38 90.2315 112.063 90.4357 112.761 90.4324C113.691 90.4324 114.582 90.0631 115.24 89.4058C115.897 88.7484 116.266 87.8568 116.266 86.9272Z" fill="#263238"/>
<path d="M153.702 17.5736C153.702 16.8803 153.496 16.2026 153.111 15.6262C152.726 15.0497 152.178 14.6005 151.538 14.3352C150.898 14.0699 150.193 14.0005 149.513 14.1357C148.833 14.271 148.208 14.6048 147.718 15.095C147.228 15.5852 146.894 16.2098 146.759 16.8897C146.624 17.5697 146.693 18.2745 146.958 18.9149C147.224 19.5554 147.673 20.1029 148.249 20.488C148.826 20.8732 149.503 21.0788 150.197 21.0788C151.125 21.0744 152.014 20.7037 152.67 20.0473C153.327 19.3909 153.697 18.5018 153.702 17.5736Z" fill="#263238"/>
<path d="M18.8328 110.746C18.8361 110.048 18.6319 109.364 18.2462 108.783C17.8605 108.201 17.3106 107.747 16.6664 107.478C16.0222 107.21 15.3127 107.139 14.628 107.274C13.9432 107.409 13.3141 107.745 12.8206 108.239C12.3271 108.732 11.9913 109.361 11.8559 110.046C11.7206 110.731 11.7917 111.44 12.0603 112.084C12.329 112.729 12.783 113.278 13.3647 113.664C13.9464 114.05 14.6296 114.254 15.3276 114.251C16.2572 114.251 17.1488 113.881 17.8062 113.224C18.4635 112.567 18.8328 111.675 18.8328 110.746Z" fill="#263238"/>
<path d="M127.745 164.359C127.745 163.665 127.539 162.988 127.154 162.411C126.769 161.835 126.221 161.386 125.581 161.12C124.94 160.855 124.236 160.786 123.556 160.921C122.876 161.056 122.251 161.39 121.761 161.88C121.271 162.37 120.937 162.995 120.802 163.675C120.666 164.355 120.736 165.06 121.001 165.7C121.266 166.341 121.716 166.888 122.292 167.273C122.869 167.658 123.546 167.864 124.24 167.864C125.168 167.86 126.057 167.489 126.713 166.832C127.37 166.176 127.74 165.287 127.745 164.359Z" fill="#263238"/>
<path d="M82.112 222.697C82.112 222.003 81.9064 221.326 81.5212 220.749C81.1361 220.173 80.5886 219.724 79.9481 219.458C79.3076 219.193 78.6029 219.124 77.9229 219.259C77.243 219.394 76.6184 219.728 76.1282 220.218C75.638 220.708 75.3042 221.333 75.1689 222.013C75.0337 222.693 75.1031 223.397 75.3684 224.038C75.6337 224.678 76.083 225.226 76.6594 225.611C77.2358 225.996 77.9135 226.202 78.6068 226.202C79.5364 226.202 80.428 225.833 81.0853 225.175C81.7427 224.518 82.112 223.626 82.112 222.697Z" fill="#263238"/>
<path d="M153.134 198.895C155.07 198.895 156.639 197.326 156.639 195.39C156.639 193.454 155.07 191.885 153.134 191.885C151.198 191.885 149.629 193.454 149.629 195.39C149.629 197.326 151.198 198.895 153.134 198.895Z" fill="#263238"/>
<path d="M224.224 65.3288C226.16 65.3288 227.729 63.7594 227.729 61.8236C227.729 59.8877 226.16 58.3184 224.224 58.3184C222.288 58.3184 220.719 59.8877 220.719 61.8236C220.719 63.7594 222.288 65.3288 224.224 65.3288Z" fill="#263238"/>
<path d="M180.942 121.38C180.949 120.682 180.748 119.997 180.365 119.414C179.982 118.83 179.434 118.374 178.791 118.102C178.148 117.83 177.439 117.756 176.754 117.888C176.068 118.02 175.438 118.353 174.942 118.844C174.446 119.335 174.107 119.963 173.969 120.647C173.83 121.331 173.898 122.041 174.163 122.686C174.429 123.332 174.88 123.884 175.46 124.272C176.04 124.661 176.722 124.868 177.42 124.868C177.88 124.87 178.337 124.782 178.763 124.608C179.189 124.433 179.577 124.177 179.904 123.853C180.231 123.529 180.491 123.144 180.669 122.72C180.847 122.295 180.94 121.84 180.942 121.38Z" fill="#263238"/>
<path d="M84.7821 55.432C84.7821 54.7347 84.5751 54.0532 84.1873 53.4736C83.7996 52.8941 83.2486 52.4427 82.6041 52.1766C81.9596 51.9106 81.2506 51.8418 80.5669 51.9791C79.8833 52.1163 79.2558 52.4534 78.7639 52.9476C78.272 53.4418 77.9379 54.0709 77.8039 54.7552C77.6699 55.4395 77.7421 56.1481 78.0112 56.7914C78.2803 57.4346 78.7343 57.9835 79.3157 58.3685C79.8971 58.7535 80.5796 58.9572 81.2769 58.9539C81.7386 58.9539 82.1957 58.8627 82.6221 58.6855C83.0485 58.5083 83.4356 58.2486 83.7613 57.9214C84.087 57.5941 84.3449 57.2057 84.5201 56.7785C84.6952 56.3513 84.7843 55.8937 84.7821 55.432Z" fill="#263238"/>
</svg>
