<svg width="40" height="40" viewBox="0 0 40 40" fill="none" xmlns="http://www.w3.org/2000/svg">
<path d="M20 0C8.954 0 0 8.954 0 20C0 31.046 8.954 40 20 40C31.046 40 40 31.046 40 20C40 8.954 31.046 0 20 0ZM20 2.898C24.357 2.898 28.334 4.528 31.354 7.21C29.135 10.137 25.764 12.086 22.386 13.405C20.4737 9.92234 18.3306 6.57153 15.971 3.375C17.2907 3.0569 18.6435 2.89678 20.001 2.898H20ZM12.724 4.518C14.954 7.854 17.114 10.947 19.087 14.448C14.097 15.741 8.458 16.517 3.249 16.53C4.347 11.202 7.926 6.778 12.724 4.519V4.518ZM33.251 9.188C35.7223 12.208 37.0817 15.9848 37.102 19.887C33.146 19.107 29.212 18.903 25.206 19.307C24.756 18.184 24.21 17.117 23.687 15.967C27.14 14.574 30.832 12.19 33.251 9.187V9.188ZM20.476 17.094C20.904 18.004 21.4 18.97 21.866 19.957C16.296 22.413 10.371 25.695 7.296 31.449C4.34401 28.1823 2.7708 23.8999 2.906 19.499C8.871 19.471 14.726 18.725 20.476 17.094ZM29.514 21.757C32.0028 21.7575 34.4813 22.0768 36.889 22.707C36.5178 25.0232 35.6739 27.2383 34.41 29.2145C33.1461 31.1907 31.489 32.8856 29.542 34.194C28.624 30.019 27.749 26.024 26.202 21.996C27.2984 21.8362 28.405 21.756 29.513 21.756L29.514 21.757ZM36.978 22.067C36.966 22.165 36.955 22.261 36.941 22.357C36.955 22.26 36.967 22.164 36.978 22.067ZM23.038 22.777C24.614 26.85 25.851 31.36 26.681 35.749C24.5682 36.6455 22.2961 37.106 20.001 37.103C16.1988 37.1084 12.5043 35.8411 9.506 33.503C12.603 28.479 17.4 24.677 23.037 22.778L23.038 22.777Z" fill="#4C4C4C"/>
</svg>
