<svg width="54" height="70" viewBox="0 0 54 70" fill="none" xmlns="http://www.w3.org/2000/svg">
<path d="M23.1994 34L16.3354 24.16C16.0474 24.192 15.6154 24.208 15.0394 24.208H7.45544V34H1.21544V0.399998H15.0394C17.9514 0.399998 20.4794 0.879998 22.6234 1.84C24.7994 2.8 26.4634 4.176 27.6154 5.968C28.7674 7.76 29.3434 9.888 29.3434 12.352C29.3434 14.88 28.7194 17.056 27.4714 18.88C26.2554 20.704 24.4954 22.064 22.1914 22.96L29.9194 34H23.1994ZM23.0554 12.352C23.0554 10.208 22.3514 8.56 20.9434 7.408C19.5354 6.256 17.4714 5.68 14.7514 5.68H7.45544V19.072H14.7514C17.4714 19.072 19.5354 18.496 20.9434 17.344C22.3514 16.16 23.0554 14.496 23.0554 12.352ZM37.7281 34.48C35.5841 34.48 33.6001 34.064 31.7761 33.232C29.9841 32.368 28.5121 31.168 27.3601 29.632L30.9121 25.36C32.7681 27.92 34.9921 29.2 37.5841 29.2C41.0721 29.2 42.8161 27.136 42.8161 23.008V5.632H30.8641V0.399998H49.0561V22.672C49.0561 26.608 48.0961 29.568 46.1761 31.552C44.2561 33.504 41.4401 34.48 37.7281 34.48ZM7.05419 41.632V51.856H23.2782V57.136H7.05419V70H0.814187V36.4H25.3422V41.632H7.05419Z" fill="#4C4C4C"/>
<path d="M44.0487 62.224H27.2487L23.9367 70H17.5047L32.6247 36.4H38.7687L53.9367 70H47.4087L44.0487 62.224ZM41.9847 57.328L35.6487 42.64L29.3607 57.328H41.9847Z" fill="#B81A28"/>
</svg>
